<?xml version="1.0" encoding="utf-8"?>
<!-- Generator: Adobe Illustrator 16.0.0, SVG Export Plug-In . SVG Version: 6.00 Build 0)  -->
<!DOCTYPE svg PUBLIC "-//W3C//DTD SVG 1.1//EN" "http://www.w3.org/Graphics/SVG/1.1/DTD/svg11.dtd">
<svg version="1.1" id="Camada_1" xmlns="http://www.w3.org/2000/svg" xmlns:xlink="http://www.w3.org/1999/xlink" x="0px" y="0px"
	 width="497.206px" height="143.68px" viewBox="0 0 497.206 143.68" enable-background="new 0 0 497.206 143.68"
	 xml:space="preserve">
<g>
	<defs>
		<rect id="SVGID_1_" width="497.206" height="143.68"/>
	</defs>
	<clipPath id="SVGID_2_">
		<use xlink:href="#SVGID_1_"  overflow="visible"/>
	</clipPath>
	<path clip-path="url(#SVGID_2_)" fill="#21184C" d="M105.352,70.187h5.815c0.961,0.009,1.836,0.247,2.605,0.7
		c0.771,0.461,1.391,1.08,1.843,1.85c0.453,0.779,0.692,1.653,0.699,2.621c-0.007,0.969-0.246,1.834-0.699,2.605
		c-0.452,0.771-1.072,1.375-1.843,1.827c-0.77,0.453-1.644,0.684-2.605,0.691h-5.837L105.352,70.187z M95.977,98.087h9.389V88.59
		h5.865c1.788-0.016,3.461-0.357,5.021-1.041c1.564-0.676,2.94-1.612,4.123-2.819c1.191-1.199,2.121-2.589,2.796-4.171
		c0.667-1.582,1.017-3.281,1.024-5.104c-0.007-1.827-0.357-3.536-1.033-5.123c-0.682-1.588-1.62-2.986-2.828-4.194
		c-1.199-1.2-2.598-2.145-4.178-2.829c-1.592-0.685-3.361-1.035-5.129-1.043H95.993v35.792L95.977,98.087z M134.349,98.135
		l2.144-4.687h14.634l2.193,4.687h9.391l-16.805-35.854h-4.245l-16.627,35.854h9.391H134.349z M143.833,77.636l3.622,7.888h-7.294
		L143.833,77.636z M199.042,98.1l-7.579-12.981c0.866-0.803,1.613-1.709,2.249-2.717c0.628-1.008,1.12-2.089,1.47-3.257
		c0.34-1.168,0.516-2.392,0.524-3.67c-0.008-1.828-0.357-3.527-1.033-5.115c-0.683-1.589-1.621-2.987-2.828-4.186
		c-1.199-1.208-2.598-2.154-4.178-2.828c-1.769-0.704-3.361-1.054-5.308-1.062h-15.033v35.792h9.39v-9.502h5.815l5.53,9.502h10.819
		L199.042,98.1z M176.875,70.22h5.814c0.962,0.016,1.836,0.246,2.607,0.699c0.77,0.461,1.39,1.073,1.843,1.851
		c0.453,0.771,0.691,1.645,0.699,2.605c-0.008,0.97-0.246,1.828-0.699,2.599c-0.453,0.763-1.073,1.373-1.843,1.819
		c-0.771,0.453-1.645,0.684-2.607,0.691h-5.814V70.22z M202.894,71.642h9.294v26.441h9.39V71.642h9.485v-9.339h-28.176v9.343
		L202.894,71.642z M237.5,98.041h9.39v-35.77h-9.39V98.041z M283.677,67.496c-1.088-1.089-2.288-2.019-3.614-2.79
		c-1.318-0.771-2.733-1.367-4.245-1.78c-1.768-0.434-3.359-0.649-4.95-0.649c-1.978,0.009-3.86,0.311-5.65,0.914
		c-1.779,0.596-3.416,1.446-4.909,2.535c-1.487,1.096-2.771,2.381-3.869,3.868c-1.089,1.493-1.938,3.122-2.535,4.908
		c-0.603,1.779-0.904,3.663-0.913,5.65c0.009,1.977,0.311,3.859,0.913,5.649c0.597,1.779,1.447,3.416,2.535,4.909
		c1.097,1.486,2.383,2.771,3.869,3.87c1.493,1.088,3.13,1.938,4.909,2.534c1.786,0.604,3.67,0.906,5.65,0.913
		c1.659-0.008,3.248-0.222,4.766-0.651c1.524-0.429,2.955-1.041,4.29-1.827c1.326-0.787,2.534-1.724,3.621-2.813l-6.674-6.578
		c-0.746,0.77-1.63,1.358-2.646,1.763c-1.017,0.413-2.136,0.62-3.362,0.62c-1.223-0.008-2.343-0.214-3.36-0.627
		c-1.024-0.414-1.906-0.993-2.66-1.749c-0.747-0.747-1.327-1.628-1.74-2.652c-0.413-1.017-0.62-2.137-0.628-3.36
		c0.008-1.225,0.214-2.344,0.628-3.362c0.413-1.023,0.992-1.906,1.74-2.661c0.754-0.746,1.637-1.326,2.66-1.739
		c1.018-0.413,2.137-0.62,3.36-0.628c1.225,0,2.345,0.207,3.362,0.612c1.017,0.405,1.9,0.978,2.646,1.725L283.677,67.496z
		 M290.874,98.041h9.39v-35.77h-9.39V98.041z M316.85,70.204h5.815c0.961,0.008,1.836,0.246,2.605,0.699
		c0.771,0.461,1.391,1.08,1.843,1.85c0.452,0.779,0.691,1.653,0.699,2.621c-0.007,0.969-0.246,1.834-0.699,2.606
		c-0.452,0.771-1.072,1.375-1.843,1.827s-1.645,0.683-2.605,0.69h-6.016L316.85,70.204z M307.299,98.083h9.39v-9.484h5.864
		c1.788-0.017,3.463-0.358,5.021-1.04c1.566-0.677,2.941-1.613,4.123-2.82c1.192-1.2,2.121-2.589,2.796-4.172
		c0.669-1.581,1.019-3.28,1.025-5.103c-0.007-1.827-0.356-3.536-1.033-5.123c-0.683-1.589-1.621-2.987-2.828-4.195
		c-1.199-1.199-2.597-2.145-4.177-2.828c-1.592-0.686-3.362-1.035-5.13-1.043h-15.034v35.791L307.299,98.083z M345.671,98.13
		l2.144-4.688h14.634l2.195,4.688h9.389l-16.803-35.854h-4.247L336.18,98.13h9.389H345.671z M355.046,77.612l3.715,7.884h-7.294
		L355.046,77.612z M375.546,71.616h9.294v26.462h9.39V71.616h9.485v-9.34h-28.176v9.344L375.546,71.616z M410.151,98.015h9.391
		V62.308h-9.375L410.151,98.015z M451.888,62.266l-9.551,20.377l-9.375-20.377h-9.375l16.626,35.855h4.29l16.626-35.855h-9.197
		H451.888z M468.866,98.121l2.122-4.688h14.635l2.192,4.688h9.391L480.58,62.266h-4.246l-16.805,35.855h9.391H468.866z
		 M478.418,77.602l3.537,7.884h-7.294L478.418,77.602z"/>
	<path clip-path="url(#SVGID_2_)" fill="#21184C" d="M105.352,21.429h5.815c0.96,0.007,1.834,0.246,2.606,0.698
		c0.778,0.462,1.397,1.081,1.839,1.852c0.46,0.779,0.69,1.652,0.708,2.621c-0.018,0.97-0.248,1.834-0.708,2.606
		c-0.442,0.771-1.061,1.374-1.839,1.828c-0.772,0.452-1.645,0.682-2.606,0.682h-5.815V21.429z M95.961,49.33h9.39v-9.481h5.863
		c1.787-0.018,3.461-0.372,5.016-1.044c1.574-0.672,2.936-1.609,4.121-2.83c1.203-1.185,2.121-2.583,2.794-4.156
		c0.672-1.591,1.026-3.29,1.026-5.109c0-1.829-0.354-3.537-1.026-5.123c-0.69-1.591-1.628-2.987-2.83-4.195
		c-1.204-1.199-2.6-2.145-4.174-2.828c-1.592-0.676-3.291-1.025-5.119-1.033H95.958L95.961,49.33z M134.333,49.377l2.145-4.687
		h14.633l2.21,4.687h9.393l-16.821-35.854h-4.245l-16.68,35.854h9.375H134.333z M143.831,28.859l3.61,7.883h-7.288L143.831,28.859z
		 M176.852,13.518h-9.428v21.661c0.016,1.978,0.381,3.82,1.096,5.53c0.723,1.7,1.723,3.2,3.009,4.489
		c1.28,1.278,2.772,2.288,4.481,3.003c1.7,0.723,3.543,1.088,5.523,1.104c1.954-0.016,3.783-0.381,5.481-1.104
		c1.7-0.715,3.192-1.724,4.489-3.003c1.286-1.288,2.295-2.79,3.026-4.489c0.732-1.708,1.097-3.55,1.113-5.53V13.518h-9.464v21.535
		c-0.008,0.865-0.224,1.651-0.636,2.352c-0.421,0.706-0.976,1.262-1.676,1.683c-0.708,0.414-1.494,0.629-2.358,0.636
		c-0.867,0-1.646-0.212-2.353-0.636c-0.708-0.407-1.255-0.973-1.68-1.681c-0.407-0.689-0.619-1.486-0.637-2.352L176.852,13.518z
		 M202.023,22.862h9.303v26.463h9.392V22.862h9.481v-9.339h-28.176v9.343V22.862z M241.052,49.367l2.144-4.688h14.634l2.193,4.688
		h9.409l-16.838-35.834h-4.228l-16.696,35.855L241.052,49.367z M250.549,28.867l3.608,7.884h-7.287L250.549,28.867z"/>
	<path clip-path="url(#SVGID_2_)" fill="#21184C" d="M23.123,13.846h23.443c0.187,0,0.374,0.002,0.56,0.007h0.026l0.029,0.002
		c0.168,0.004,0.336,0.011,0.503,0.018l0.052,0.003l0.036,0.002c0.563,0.03,1.121,0.08,1.671,0.149l0.023,0.003l0.051,0.007
		c0.152,0.02,0.302,0.042,0.454,0.064l0.131,0.021c0.155,0.024,0.307,0.05,0.46,0.077l0.034,0.006h0.002l0.044,0.008
		c0.139,0.026,0.278,0.052,0.417,0.081l0.205,0.042l0.36,0.079l0.161,0.037l0.411,0.102l0.118,0.03l0.372,0.101l0.227,0.064
		l0.251,0.076l0.33,0.103l0.065,0.02l0.168,0.055l0.032,0.011l0.285,0.098l0.02,0.007l0.168,0.059l0.004,0.001l0.306,0.113
		l0.024,0.009l0.165,0.063l0.048,0.019l0.263,0.104l0.019,0.007l0.165,0.068l0.027,0.012c0.264,0.108,0.524,0.222,0.783,0.341
		l0.16,0.074c0.155,0.072,0.309,0.146,0.461,0.223l0.042,0.02c0.145,0.073,0.288,0.146,0.431,0.221l0.014,0.007l0.155,0.082
		c7.198,3.859,12.127,11.459,12.127,20.158v25.546c0,0.196-0.002,0.392-0.007,0.588c-0.006,0.195-0.013,0.389-0.023,0.584
		c-0.009,0.194-0.023,0.386-0.038,0.579c-0.014,0.193-0.031,0.385-0.05,0.576c-0.021,0.191-0.041,0.381-0.067,0.571
		c-0.024,0.19-0.051,0.379-0.08,0.567c-0.028,0.189-0.059,0.376-0.094,0.563c-0.033,0.186-0.069,0.372-0.107,0.557
		c-0.039,0.185-0.079,0.37-0.122,0.553c-0.042,0.183-0.088,0.366-0.135,0.547c-0.047,0.182-0.097,0.363-0.147,0.543
		c-0.052,0.18-0.107,0.359-0.162,0.537c-0.056,0.178-0.114,0.356-0.174,0.531c-0.06,0.176-0.122,0.351-0.187,0.525
		c-0.064,0.175-0.131,0.348-0.199,0.52c-0.068,0.172-0.14,0.342-0.212,0.513c-0.072,0.17-0.146,0.339-0.224,0.507
		c-0.076,0.168-0.155,0.335-0.235,0.5c-0.081,0.166-0.163,0.33-0.248,0.494c-0.084,0.164-0.171,0.325-0.259,0.486
		c-0.087,0.161-0.178,0.322-0.27,0.479c-0.092,0.159-0.186,0.317-0.282,0.475c-0.095,0.156-0.193,0.311-0.293,0.465
		c-0.098,0.153-0.2,0.306-0.302,0.457c-0.104,0.151-0.208,0.301-0.315,0.45c-0.106,0.147-0.215,0.296-0.325,0.441
		c-0.109,0.146-0.222,0.292-0.335,0.435c-0.112,0.144-0.227,0.285-0.345,0.426c-0.116,0.141-0.234,0.28-0.354,0.417h-0.001
		c-0.12,0.138-0.241,0.275-0.364,0.409c-0.123,0.136-0.247,0.268-0.374,0.399c-0.126,0.133-0.255,0.263-0.384,0.392
		c-0.13,0.13-0.261,0.257-0.393,0.383c-0.133,0.126-0.267,0.25-0.402,0.373h-0.001c-0.135,0.122-0.272,0.243-0.41,0.362
		c-0.139,0.119-0.279,0.237-0.42,0.354c-0.141,0.117-0.284,0.23-0.428,0.344c-0.144,0.112-0.289,0.225-0.435,0.333
		c-0.148,0.111-0.295,0.219-0.446,0.324c-0.149,0.106-0.3,0.211-0.452,0.313c-0.151,0.103-0.306,0.205-0.459,0.304h-0.001
		c-0.155,0.099-0.31,0.197-0.468,0.293c-0.156,0.095-0.315,0.189-0.474,0.281c-0.16,0.092-0.32,0.182-0.482,0.271H57.44
		c-0.162,0.088-0.324,0.174-0.488,0.259c-0.165,0.085-0.33,0.167-0.496,0.248c-0.167,0.08-0.335,0.159-0.503,0.237
		c-0.169,0.076-0.338,0.151-0.509,0.224h-0.001c-0.17,0.073-0.342,0.145-0.514,0.214c-0.174,0.068-0.347,0.136-0.522,0.2h-0.001
		c-0.175,0.066-0.349,0.129-0.526,0.189h-0.001c-0.176,0.061-0.355,0.119-0.532,0.176h-0.001c-0.178,0.058-0.358,0.112-0.538,0.164
		c-0.181,0.052-0.362,0.104-0.544,0.151c-0.182,0.049-0.366,0.095-0.549,0.138c-0.185,0.044-0.369,0.086-0.554,0.126H51.16
		c-0.185,0.039-0.372,0.076-0.558,0.111c-0.188,0.035-0.375,0.067-0.564,0.099h-0.001c-0.187,0.03-0.378,0.06-0.567,0.084h-0.001
		c-0.19,0.026-0.38,0.05-0.572,0.072h-0.001c-0.19,0.021-0.382,0.04-0.575,0.057c-0.193,0.018-0.386,0.031-0.58,0.042H47.74
		c-0.193,0.012-0.388,0.022-0.584,0.029c-0.195,0.008-0.39,0.011-0.587,0.014L22.15,85.391L5.992,95.708
		c-6.168,3.938-6,3.165-5.973-2.827l0.076-17.747c-0.086-0.516-0.099-1.344-0.094-2.52L0.26,36.627
		c0.046-10.608,7.338-19.587,17.166-22.129c0.181-0.047,0.363-0.092,0.547-0.134h0.002c0.182-0.044,0.367-0.084,0.551-0.122h0.001
		c0.185-0.039,0.371-0.074,0.558-0.108s0.375-0.065,0.562-0.094h0.001c0.189-0.029,0.378-0.056,0.567-0.08h0.001
		c0.19-0.025,0.381-0.047,0.572-0.066c0.19-0.019,0.383-0.037,0.576-0.052s0.386-0.027,0.58-0.037
		c0.194-0.009,0.389-0.018,0.583-0.022c0.196-0.005,0.392-0.008,0.588-0.008L23.123,13.846z"/>
	<path clip-path="url(#SVGID_2_)" fill="#B0DBF6" d="M33.453,50.709l-2.377-2.323c-0.077-3.801-7.921-13.321-10.122-14.931
		c-0.329,0.252-1.293,3.987-3.407,2.399c-0.493-0.361-2.696,1.917-2.696,2.421c2.477,6.102,6.212,11.47,8.94,16.52
		c0.372,0.701-0.603-0.099-1.205-0.361l2.215,3.057l0.841,1.46l0.921,0.486l5.731,9.285l-0.276-2.829l1.906,0.772l0.218-2.174
		l7.238-5.27l1.261-4.162l-0.031,2.64l2.956-5.781l-1.785,4.27c0.31-0.764,2.921-4.574,3.797-5.561l14.428-16.246
		c2.367-2.209,6.093-7.12,8.798-9.794c1.792-1.772-4.735,3.266-3.748,1.86c0.448-0.638,5.75-5.43,6.301-5.606
		c-1.266-5.126,1.806-2.104,1.806-5.827v-3.253h1.952L77.1,13.027l2.045-0.641L78.416,9.81h1.301l0.078-2.045l1.332,1.111
		l3.795-7.522c-1.399,0.739-7.657-2.621-9.543-0.812C67.501,8.093,39.863,42.06,33.455,50.704L33.453,50.709z"/>
	<path clip-path="url(#SVGID_2_)" fill="#FFFFFF" d="M106.35,128.869l-0.09,0.12c-0.268-0.928-0.718-1.616-1.376-2.064
		c-0.659-0.449-1.317-0.658-2.006-0.658c-0.687,0-1.226,0.149-1.615,0.448c-0.389,0.301-0.568,0.658-0.568,1.077
		c0,0.329,0.119,0.599,0.329,0.838c0.209,0.239,0.509,0.479,0.897,0.688c0.389,0.21,0.868,0.449,1.407,0.688
		c0.539,0.238,1.137,0.509,1.765,0.777c0.689,0.299,1.406,0.628,2.125,1.019c0.717,0.389,1.347,0.838,1.915,1.346
		c0.568,0.509,1.047,1.106,1.405,1.765c0.36,0.659,0.54,1.437,0.54,2.304c0,0.929-0.18,1.797-0.54,2.574
		c-0.358,0.777-0.867,1.466-1.554,2.034c-0.689,0.569-1.496,1.019-2.454,1.347c-0.957,0.3-2.005,0.448-3.142,0.448
		c-1.107,0-2.125-0.148-3.022-0.418c-0.898-0.3-1.705-0.749-2.394-1.316c-0.688-0.569-1.286-1.227-1.796-2.006
		c-0.508-0.777-0.896-1.645-1.196-2.572l4.698-1.258c0.119,0.42,0.299,0.81,0.538,1.197c0.239,0.39,0.509,0.718,0.838,1.019
		c0.329,0.299,0.718,0.538,1.137,0.718c0.419,0.179,0.897,0.269,1.406,0.269c0.777,0,1.377-0.179,1.796-0.508
		c0.419-0.33,0.628-0.749,0.628-1.257c0-0.389-0.12-0.719-0.359-0.988c-0.24-0.269-0.569-0.538-1.018-0.777
		c-0.448-0.239-0.957-0.479-1.556-0.688c-0.598-0.209-1.226-0.449-1.914-0.778c-0.658-0.299-1.317-0.688-1.975-1.047
		c-0.659-0.358-1.227-0.777-1.736-1.257c-0.508-0.478-0.926-1.047-1.226-1.706c-0.3-0.657-0.45-1.436-0.45-2.333
		c0-0.748,0.18-1.496,0.54-2.214c0.359-0.719,0.867-1.376,1.525-1.945c0.658-0.568,1.437-1.017,2.334-1.346
		c0.897-0.33,1.915-0.509,3.022-0.509c0.957,0,1.855,0.148,2.693,0.449c0.838,0.299,1.587,0.688,2.274,1.195
		c0.689,0.51,1.286,1.107,1.766,1.796c0.478,0.688,0.838,1.437,1.077,2.244L106.35,128.869z"/>
	<path clip-path="url(#SVGID_2_)" fill="#FFFFFF" d="M132.588,122.317v12.117c0,1.467-0.21,2.782-0.629,3.92
		s-0.987,2.095-1.734,2.872c-0.749,0.778-1.647,1.377-2.723,1.797c-1.077,0.388-2.275,0.598-3.591,0.598s-2.513-0.21-3.591-0.598
		c-1.077-0.42-1.974-1.019-2.722-1.797c-0.748-0.777-1.317-1.734-1.736-2.872c-0.419-1.138-0.628-2.453-0.628-3.92v-12.117h4.936
		v12.088c0,1.615,0.33,2.782,0.958,3.53c0.629,0.748,1.556,1.107,2.783,1.107s2.154-0.359,2.782-1.107
		c0.628-0.748,0.958-1.915,0.958-3.53v-12.088H132.588z"/>
	<path clip-path="url(#SVGID_2_)" fill="#FFFFFF" d="M149.912,139.969h-7.571l-1.047,3.292h-5.206l7.51-20.945h5.087l7.51,20.945
		h-5.237L149.912,139.969z M148.476,135.572l-1.437-4.549c-0.12-0.389-0.239-0.777-0.33-1.167c-0.088-0.389-0.178-0.718-0.268-1.017
		c-0.09-0.299-0.15-0.539-0.209-0.718l-0.09-0.271h-0.03l-0.061,0.271c-0.058,0.179-0.119,0.419-0.209,0.718
		s-0.179,0.628-0.299,1.017c-0.12,0.39-0.239,0.778-0.358,1.167l-1.467,4.549H148.476z"/>
	<path clip-path="url(#SVGID_2_)" fill="#FFFFFF" d="M167.324,132.848c0-1.646,0.239-3.142,0.748-4.487
		c0.509-1.347,1.197-2.483,2.064-3.441c0.869-0.957,1.915-1.705,3.142-2.214s2.544-0.778,3.949-0.778
		c1.438,0,2.753,0.27,3.951,0.778c1.197,0.509,2.244,1.227,3.142,2.184c0.898,0.958,1.585,2.096,2.094,3.441
		c0.509,1.347,0.748,2.843,0.748,4.489c0,1.645-0.239,3.141-0.748,4.486c-0.509,1.348-1.196,2.484-2.094,3.442
		c-0.898,0.957-1.945,1.675-3.142,2.184c-1.198,0.479-2.513,0.748-3.951,0.748c-1.405,0-2.722-0.27-3.949-0.748
		c-1.227-0.509-2.273-1.257-3.142-2.215c-0.867-0.957-1.555-2.094-2.064-3.439c-0.509-1.348-0.748-2.844-0.748-4.489V132.848z
		 M173.697,137.278c0.838,1.076,2.006,1.614,3.502,1.614c1.495,0,2.662-0.538,3.53-1.614c0.867-1.078,1.286-2.574,1.286-4.489
		c0-1.944-0.419-3.441-1.286-4.488c-0.868-1.047-2.035-1.586-3.53-1.586c-1.496,0-2.664,0.539-3.502,1.586
		c-0.838,1.047-1.257,2.544-1.257,4.488C172.44,134.704,172.859,136.2,173.697,137.278"/>
	<path clip-path="url(#SVGID_2_)" fill="#FFFFFF" d="M199.337,122.346l-0.029,0.029c1.197,0,2.274,0.15,3.231,0.479
		c0.958,0.329,1.796,0.808,2.484,1.406s1.197,1.347,1.555,2.244c0.36,0.897,0.539,1.885,0.539,2.991
		c0,1.108-0.179,2.097-0.539,2.993c-0.358,0.897-0.867,1.646-1.555,2.273c-0.688,0.629-1.496,1.107-2.453,1.437
		c-0.958,0.329-2.036,0.479-3.233,0.479h-2.572v6.583h-4.907v-20.915H199.337z M199.219,132.011v0.029
		c0.897,0,1.585-0.21,2.095-0.658c0.509-0.448,0.748-1.077,0.748-1.886c0-0.807-0.239-1.436-0.748-1.884
		c-0.51-0.449-1.198-0.688-2.095-0.688h-2.453v5.087H199.219z"/>
	<rect x="211.604" y="122.316" clip-path="url(#SVGID_2_)" fill="#FFFFFF" width="4.907" height="20.945"/>
	<path clip-path="url(#SVGID_2_)" fill="#FFFFFF" d="M239.819,122.317l-0.061,21.004h-4.487l-4.13-6.313
		c-0.388-0.598-0.867-1.256-1.345-1.944c-0.479-0.688-0.898-1.347-1.288-1.945c-0.388-0.599-0.717-1.077-0.986-1.466l-0.391-0.599
		h-0.058l0.03,0.539c0.028,0.358,0.028,0.867,0.059,1.557c0.03,0.688,0.06,1.495,0.091,2.423c0.029,0.928,0.029,1.944,0.029,3.082
		v4.607h-4.877v-20.915h4.488l4.368,6.613c0.299,0.448,0.659,0.987,1.078,1.615c0.418,0.628,0.837,1.227,1.226,1.795
		c0.39,0.568,0.689,1.048,0.987,1.467l0.419,0.598h0.031v-0.598v-1.586c0-0.658,0-1.436-0.031-2.334
		c-0.03-0.898-0.03-1.825-0.03-2.813v-4.786H239.819z"/>
	<rect x="245.742" y="122.316" clip-path="url(#SVGID_2_)" fill="#FFFFFF" width="4.907" height="20.945"/>
	<path clip-path="url(#SVGID_2_)" fill="#FFFFFF" d="M268.303,139.969h-7.571l-1.047,3.292h-5.206l7.511-20.945h5.087l7.51,20.945
		h-5.237L268.303,139.969z M271.563,116.482h-0.089c0,0.658-0.12,1.257-0.358,1.825c-0.239,0.568-0.539,1.047-0.929,1.466
		c-0.388,0.419-0.866,0.748-1.404,0.987c-0.539,0.24-1.139,0.359-1.796,0.359c-0.538,0-1.018-0.09-1.437-0.27
		s-0.808-0.389-1.137-0.628c-0.329-0.24-0.629-0.449-0.928-0.629c-0.301-0.179-0.598-0.269-0.929-0.269
		c-0.388,0-0.687,0.12-0.896,0.358c-0.211,0.239-0.33,0.539-0.33,0.898h-3.71c0-0.659,0.119-1.257,0.358-1.826
		c0.24-0.568,0.568-1.047,0.957-1.466c0.391-0.419,0.868-0.748,1.407-0.987c0.538-0.239,1.136-0.358,1.764-0.358
		c0.57,0,1.049,0.089,1.468,0.27c0.419,0.179,0.809,0.388,1.137,0.628c0.329,0.239,0.658,0.448,0.957,0.628
		c0.3,0.179,0.599,0.27,0.928,0.27c0.39,0,0.688-0.12,0.898-0.359c0.209-0.239,0.329-0.538,0.329-0.897H271.563z M266.867,135.572
		l-1.438-4.549c-0.12-0.389-0.239-0.777-0.33-1.167c-0.088-0.389-0.178-0.718-0.269-1.017c-0.089-0.299-0.149-0.539-0.209-0.718
		l-0.089-0.271h-0.03l-0.062,0.271c-0.058,0.179-0.118,0.419-0.209,0.718c-0.09,0.299-0.179,0.628-0.299,1.017
		c-0.12,0.39-0.238,0.778-0.358,1.167l-1.468,4.549H266.867z"/>
	<path clip-path="url(#SVGID_2_)" fill="#FFFFFF" d="M277.098,132.848c0-1.646,0.239-3.142,0.748-4.487
		c0.509-1.347,1.197-2.483,2.063-3.441c0.869-0.957,1.915-1.705,3.143-2.214c1.227-0.509,2.544-0.778,3.948-0.778
		c1.438,0,2.754,0.27,3.95,0.778c1.198,0.509,2.245,1.227,3.144,2.184c0.896,0.958,1.585,2.096,2.094,3.441
		c0.509,1.347,0.748,2.843,0.748,4.489c0,1.645-0.239,3.141-0.748,4.486c-0.509,1.348-1.197,2.484-2.094,3.442
		c-0.898,0.957-1.945,1.675-3.144,2.184c-1.196,0.479-2.513,0.748-3.95,0.748c-1.404,0-2.722-0.27-3.948-0.748
		c-1.228-0.509-2.273-1.257-3.143-2.215c-0.866-0.957-1.555-2.094-2.063-3.439c-0.509-1.348-0.748-2.844-0.748-4.489V132.848z
		 M283.471,137.278c0.838,1.076,2.005,1.614,3.501,1.614s2.663-0.538,3.531-1.614c0.865-1.078,1.284-2.574,1.284-4.489
		c0-1.944-0.419-3.441-1.284-4.488c-0.868-1.047-2.035-1.586-3.531-1.586s-2.663,0.539-3.501,1.586s-1.257,2.544-1.257,4.488
		C282.214,134.704,282.633,136.2,283.471,137.278"/>
	<path clip-path="url(#SVGID_2_)" fill="#FFFFFF" d="M328.23,122.317l-7.33,20.944h-5.596l-7.24-20.944h5.326l3.591,11.549
		c0.389,1.227,0.658,2.245,0.837,3.021c0.18,0.779,0.27,1.167,0.299,1.167h0.03c0.029,0,0.12-0.388,0.3-1.167
		c0.179-0.776,0.449-1.795,0.838-3.021l3.59-11.549H328.23z"/>
	<path clip-path="url(#SVGID_2_)" fill="#FFFFFF" d="M343.729,139.969h-7.571l-1.047,3.292h-5.207l7.512-20.945h5.087l7.51,20.945
		h-5.237L343.729,139.969z M342.293,135.572l-1.438-4.549c-0.12-0.389-0.239-0.777-0.33-1.167c-0.089-0.389-0.178-0.718-0.269-1.017
		c-0.089-0.299-0.149-0.539-0.209-0.718l-0.089-0.271h-0.03l-0.062,0.271c-0.059,0.179-0.118,0.419-0.209,0.718
		c-0.09,0.299-0.179,0.628-0.299,1.017c-0.12,0.39-0.238,0.778-0.358,1.167l-1.468,4.549H342.293z"/>
	<polygon clip-path="url(#SVGID_2_)" fill="#FFFFFF" points="367.725,138.593 367.725,143.261 353.75,143.261 353.75,122.316 
		358.658,122.316 358.658,138.593 	"/>
	<polygon clip-path="url(#SVGID_2_)" fill="#FFFFFF" points="386.304,138.593 386.304,143.261 372.031,143.261 372.031,122.316 
		386.123,122.316 386.123,126.955 376.938,126.955 376.938,130.455 384.029,130.455 384.029,134.824 376.938,134.824 
		376.938,138.593 	"/>
	<path clip-path="url(#SVGID_2_)" fill="#FFFFFF" d="M420.112,122.317l-0.062,21.004h-4.787v-5.535c0-2.303,0.062-4.069,0.15-5.296
		c0.09-1.228,0.12-1.855,0.09-1.855h-0.03l-0.239,0.419c-0.148,0.27-0.328,0.599-0.508,0.957c-0.181,0.359-0.359,0.719-0.539,1.077
		c-0.18,0.36-0.3,0.629-0.389,0.778l-2.273,4.249h-2.483l-2.276-4.249c-0.058-0.149-0.178-0.418-0.357-0.778
		c-0.18-0.358-0.359-0.718-0.538-1.077c-0.18-0.358-0.36-0.688-0.509-0.957l-0.24-0.419h-0.06c-0.029,0,0,0.6,0.09,1.825
		c0.09,1.227,0.148,2.992,0.148,5.296v5.536h-4.756v-20.915h4.607l3.591,6.343c0.658,1.167,1.077,2.005,1.257,2.483
		c0.178,0.479,0.269,0.718,0.299,0.718h0.029l0.06-0.179c0.031-0.12,0.121-0.299,0.24-0.568c0.12-0.27,0.27-0.599,0.479-1.018
		c0.209-0.419,0.479-0.928,0.808-1.496l3.59-6.343H420.112z"/>
	<path clip-path="url(#SVGID_2_)" fill="#FFFFFF" d="M443.001,122.317v12.117c0,1.467-0.21,2.782-0.629,3.92
		s-0.987,2.095-1.734,2.872c-0.749,0.778-1.647,1.377-2.723,1.797c-1.077,0.388-2.275,0.598-3.592,0.598
		c-1.315,0-2.514-0.21-3.591-0.598c-1.077-0.42-1.974-1.019-2.722-1.797c-0.748-0.777-1.317-1.734-1.736-2.872
		s-0.628-2.453-0.628-3.92v-12.117h4.937v12.088c0,1.615,0.33,2.782,0.958,3.53c0.629,0.748,1.556,1.107,2.782,1.107
		c1.228,0,2.154-0.359,2.782-1.107s0.958-1.915,0.958-3.53v-12.088H443.001z"/>
	<rect x="448.594" y="122.316" clip-path="url(#SVGID_2_)" fill="#FFFFFF" width="4.906" height="20.945"/>
	<polygon clip-path="url(#SVGID_2_)" fill="#FFFFFF" points="474.026,122.317 474.026,126.955 468.192,126.955 468.192,143.261 
		463.285,143.261 463.285,126.955 457.509,126.955 457.509,122.317 	"/>
	<path clip-path="url(#SVGID_2_)" fill="#FFFFFF" d="M476.809,132.848c0-1.646,0.239-3.142,0.747-4.487
		c0.51-1.347,1.197-2.483,2.063-3.441c0.869-0.957,1.916-1.705,3.144-2.214c1.227-0.509,2.543-0.778,3.948-0.778
		c1.438,0,2.754,0.27,3.949,0.778c1.198,0.509,2.245,1.227,3.144,2.184c0.897,0.958,1.586,2.096,2.094,3.441
		c0.509,1.347,0.749,2.843,0.749,4.489c0,1.645-0.24,3.141-0.749,4.486c-0.508,1.348-1.196,2.484-2.094,3.442
		c-0.898,0.957-1.945,1.675-3.144,2.184c-1.195,0.479-2.512,0.748-3.949,0.748c-1.405,0-2.722-0.27-3.948-0.748
		c-1.228-0.509-2.274-1.257-3.144-2.215c-0.866-0.957-1.554-2.094-2.063-3.439c-0.508-1.348-0.747-2.844-0.747-4.489V132.848z
		 M483.182,137.278c0.838,1.076,2.005,1.614,3.501,1.614s2.662-0.538,3.529-1.614c0.867-1.078,1.286-2.574,1.286-4.489
		c0-1.944-0.419-3.441-1.286-4.488s-2.033-1.586-3.529-1.586s-2.663,0.539-3.501,1.586s-1.257,2.544-1.257,4.488
		C481.925,134.704,482.344,136.2,483.182,137.278"/>
</g>
</svg>
