<svg xmlns="http://www.w3.org/2000/svg" enable-background="new 0 0 497.206 143.68" height="200" viewBox="0 0 699.99998 200.00038" width="700" version="1.1" y="0px" x="0px" xmlns:xlink="http://www.w3.org/1999/xlink">
  <g>
    <g fill="#3c325f">
      <path d="m105.4 70.19h5.815c0.961 0.009 1.836 0.247 2.605 0.7 0.771 0.461 1.391 1.08 1.843 1.85 0.453 0.779 0.692 1.653 0.699 2.621-0.007 0.969-0.246 1.834-0.699 2.605-0.452 0.771-1.072 1.375-1.843 1.827-0.77 0.453-1.644 0.684-2.605 0.691h-5.837zm-9.375 27.9h9.389v-9.5h5.865c1.788-0.016 3.461-0.357 5.021-1.041 1.564-0.676 2.94-1.612 4.123-2.819 1.191-1.199 2.121-2.589 2.796-4.171 0.667-1.582 1.017-3.281 1.024-5.104-0.007-1.827-0.357-3.536-1.033-5.123-0.682-1.588-1.62-2.986-2.828-4.194-1.199-1.2-2.598-2.145-4.178-2.829-1.592-0.685-3.361-1.035-5.129-1.043h-15.11v35.79zm38.37 0.048 2.144-4.687h14.63l2.193 4.687h9.391l-16.8-35.86h-4.245l-16.63 35.85h9.391zm9.484-20.5 3.622 7.888h-7.294zm55.1 20.46-7.5-12.98c0.866-0.803 1.613-1.709 2.249-2.717 0.628-1.008 1.12-2.089 1.47-3.257 0.34-1.168 0.516-2.392 0.524-3.67-0.008-1.828-0.357-3.527-1.033-5.115-0.683-1.589-1.621-2.987-2.828-4.186-1.199-1.208-2.598-2.154-4.178-2.828-1.769-0.704-3.361-1.054-5.308-1.062h-15.03v35.79h9.39v-9.502h5.815l5.53 9.502h10.8zm-22.1-27.88h5.814c0.962 0.016 1.836 0.246 2.607 0.699 0.77 0.461 1.39 1.073 1.843 1.851 0.453 0.771 0.691 1.645 0.699 2.605-0.008 0.97-0.246 1.828-0.699 2.599-0.453 0.763-1.073 1.373-1.843 1.819-0.771 0.453-1.645 0.684-2.607 0.691h-5.814zm26.02 1.422h9.294v26.44h9.39v-26.44h9.485v-9.339h-28.18v9.343zm34.6 26.4h9.39v-35.77h-9.39zm46.18-30.54c-1.088-1.089-2.288-2.019-3.614-2.79-1.318-0.771-2.733-1.367-4.245-1.78-1.768-0.434-3.359-0.649-4.95-0.649-1.978 0.009-3.86 0.311-5.65 0.914-1.779 0.596-3.416 1.446-4.909 2.535-1.487 1.096-2.771 2.381-3.869 3.868-1.089 1.493-1.938 3.122-2.535 4.908-0.603 1.779-0.904 3.663-0.913 5.65 0.009 1.977 0.311 3.859 0.913 5.649 0.597 1.779 1.447 3.416 2.535 4.909 1.097 1.486 2.383 2.771 3.869 3.87 1.493 1.088 3.13 1.938 4.909 2.534 1.786 0.604 3.67 0.906 5.65 0.913 1.659-0.008 3.248-0.222 4.766-0.651 1.524-0.429 2.955-1.041 4.29-1.827 1.326-0.787 2.534-1.724 3.621-2.813l-6.674-6.578c-0.746 0.77-1.63 1.358-2.646 1.763-1.017 0.413-2.136 0.62-3.362 0.62-1.223-0.008-2.343-0.214-3.36-0.627-1.024-0.414-1.906-0.993-2.66-1.749-0.747-0.747-1.327-1.628-1.74-2.652-0.413-1.017-0.62-2.137-0.628-3.36 0.008-1.225 0.214-2.344 0.628-3.362 0.413-1.023 0.992-1.906 1.74-2.661 0.754-0.746 1.637-1.326 2.66-1.739 1.018-0.413 2.137-0.62 3.36-0.628 1.225 0 2.345 0.207 3.362 0.612s1.9 0.978 2.646 1.725zm7.197 30.54h9.39v-35.77h-9.39zm25.9-27.84h5.815c0.961 0.008 1.836 0.246 2.605 0.699 0.771 0.461 1.391 1.08 1.843 1.85 0.452 0.779 0.691 1.653 0.699 2.621-0.007 0.969-0.246 1.834-0.699 2.606-0.452 0.771-1.072 1.375-1.843 1.827s-1.645 0.683-2.605 0.69h-6.016zm-9.551 27.88h9.39v-9.484h5.864c1.788-0.017 3.463-0.358 5.021-1.04 1.566-0.677 2.941-1.613 4.123-2.82 1.192-1.2 2.121-2.589 2.796-4.172 0.669-1.581 1.019-3.28 1.025-5.103-0.007-1.827-0.356-3.536-1.033-5.123-0.683-1.589-1.621-2.987-2.828-4.195-1.199-1.199-2.597-2.145-4.177-2.828-1.592-0.686-3.362-1.035-5.13-1.043h-15.03v35.79zm38.37 0.047 2.144-4.688h14.63l2.195 4.688h9.389l-16.7-35.85h-4.247l-16.8 35.85h9.389zm9.375-20.52 3.715 7.884h-7.294zm20.5-5.996h9.294v26.46h9.39v-26.45h9.485v-9.34h-28.18v9.344zm34.6 26.4h9.391v-35.7h-9.375zm41.74-35.75-9.551 20.38-9.375-20.38h-9.375l16.63 35.86h4.29l16.63-35.86h-9.197zm16.98 35.86 2.122-4.688h14.64l2.192 4.688h9.391l-16.5-35.85h-4.246l-16.8 35.86h9.391zm9.552-20.52 3.537 7.884h-7.294z" transform="matrix(1.408 0 0 1.408 -.0001360 .00007544)"/>
      <path d="m148.3 30.17h8.187c1.352 0.0099 2.582 0.3463 3.669 0.9827 1.095 0.6504 1.967 1.522 2.589 2.607 0.6476 1.097 0.9714 2.326 0.9968 3.69-0.0253 1.366-0.3492 2.582-0.9968 3.669-0.6223 1.085-1.494 1.934-2.589 2.574-1.087 0.6364-2.316 0.9602-3.669 0.9602h-8.187zm-13.2 39.28h13.2v-13.35h8.254c2.516-0.02534 4.873-0.5237 7.062-1.47 2.216-0.9461 4.134-2.265 5.802-3.984 1.694-1.668 2.986-3.637 3.934-5.851 0.9461-2.24 1.444-4.632 1.444-7.193 0-2.575-0.4984-4.98-1.444-7.213-0.9714-2.24-2.292-4.205-3.984-5.906-1.695-1.688-3.66-3.02-5.876-3.981-2.241-0.9517-4.633-1.443-7.207-1.454h-21.2zm54.02 0.06617 3.02-6.599h20.6l3.111 6.599h13.22l-23.6-50.48h-5.976l-23.48 50.48h13.2zm13.37-28.89 5.082 11.1h-10.3zm46.49-21.6h-13.27v30.5c0.0225 2.785 0.5364 5.378 1.543 7.786 1.018 2.393 2.426 4.505 4.236 6.32 1.802 1.799 3.903 3.221 6.309 4.228 2.393 1.018 4.988 1.532 7.776 1.554 2.751-0.02253 5.326-0.5364 7.717-1.554 2.393-1.007 4.494-2.427 6.32-4.228 1.811-1.813 3.231-3.928 4.26-6.32 1.031-2.405 1.544-4.998 1.567-7.786v-30.5h-13.3v30.32c-0.0113 1.218-0.3154 2.324-0.8954 3.311-0.5927 0.994-1.374 1.777-2.36 2.369-0.9968 0.5829-2.103 0.8855-3.32 0.8954-1.221 0-2.317-0.2985-3.313-0.8954-0.9968-0.573-1.767-1.37-2.365-2.367-0.573-0.97-0.8715-2.092-0.8968-3.311zm35.44 13.16h13.1v37.26h13.22v-37.26h13.35v-13.15h-39.67v13.15zm54.95 37.32 3.018-6.6h20.6l3.087 6.6h13.25l-23.71-50.45h-5.952l-23.5 50.47zm13.37-28.86 5.08 11.1h-10.26z" stroke-width="1.408"/>
      <path d="m23.12 13.85h23.44c0.187 0 0.374 0.002 0.56 0.007h0.026l0.029 0.002c0.168 0.004 0.336 0.011 0.503 0.018l0.052 0.003 0.036 0.002c0.563 0.03 1.121 0.08 1.671 0.149l0.023 0.003 0.051 0.007c0.152 0.02 0.302 0.042 0.454 0.064l0.131 0.021c0.155 0.024 0.307 0.05 0.46 0.077l0.034 0.006h0.002l0.044 0.008c0.139 0.026 0.278 0.052 0.417 0.081l0.205 0.042 0.36 0.079 0.161 0.037 0.411 0.102 0.118 0.03 0.372 0.101 0.227 0.064 0.251 0.076 0.33 0.103 0.065 0.02 0.168 0.055 0.032 0.011 0.285 0.098 0.02 0.007 0.168 0.059 0.004 0.001 0.306 0.113 0.024 0.009 0.165 0.063 0.048 0.019 0.263 0.104 0.019 0.007 0.165 0.068 0.027 0.012c0.264 0.108 0.524 0.222 0.783 0.341l0.16 0.074c0.155 0.072 0.309 0.146 0.461 0.223l0.042 0.02c0.145 0.073 0.288 0.146 0.431 0.221l0.014 0.007 0.155 0.082c7.198 3.859 12.13 11.46 12.13 20.16v25.55c0 0.196-0.002 0.392-0.007 0.588-0.006 0.195-0.013 0.389-0.023 0.584-0.009 0.194-0.023 0.386-0.038 0.579-0.014 0.193-0.031 0.385-0.05 0.576-0.021 0.191-0.041 0.381-0.067 0.571-0.024 0.19-0.051 0.379-0.08 0.567-0.028 0.189-0.059 0.376-0.094 0.563-0.033 0.186-0.069 0.372-0.107 0.557-0.039 0.185-0.079 0.37-0.122 0.553-0.042 0.183-0.088 0.366-0.135 0.547-0.047 0.182-0.097 0.363-0.147 0.543-0.052 0.18-0.107 0.359-0.162 0.537-0.056 0.178-0.114 0.356-0.174 0.531-0.06 0.176-0.122 0.351-0.187 0.525-0.064 0.175-0.131 0.348-0.199 0.52s-0.14 0.342-0.212 0.513c-0.072 0.17-0.146 0.339-0.224 0.507-0.076 0.168-0.155 0.335-0.235 0.5-0.081 0.166-0.163 0.33-0.248 0.494-0.084 0.164-0.171 0.325-0.259 0.486-0.087 0.161-0.178 0.322-0.27 0.479-0.092 0.159-0.186 0.317-0.282 0.475-0.095 0.156-0.193 0.311-0.293 0.465-0.098 0.153-0.2 0.306-0.302 0.457-0.104 0.151-0.208 0.301-0.315 0.45-0.106 0.147-0.215 0.296-0.325 0.441-0.109 0.146-0.222 0.292-0.335 0.435-0.112 0.144-0.227 0.285-0.345 0.426-0.116 0.141-0.234 0.28-0.354 0.417h-0.001c-0.12 0.138-0.241 0.275-0.364 0.409-0.123 0.136-0.247 0.268-0.374 0.399-0.126 0.133-0.255 0.263-0.384 0.392-0.13 0.13-0.261 0.257-0.393 0.383-0.133 0.126-0.267 0.25-0.402 0.373h-0.001c-0.135 0.122-0.272 0.243-0.41 0.362-0.139 0.119-0.279 0.237-0.42 0.354s-0.284 0.23-0.428 0.344c-0.144 0.112-0.289 0.225-0.435 0.333-0.148 0.111-0.295 0.219-0.446 0.324-0.149 0.106-0.3 0.211-0.452 0.313-0.151 0.103-0.306 0.205-0.459 0.304h-0.001c-0.155 0.099-0.31 0.197-0.468 0.293-0.156 0.095-0.315 0.189-0.474 0.281-0.16 0.092-0.32 0.182-0.482 0.271h0.02c-0.162 0.088-0.324 0.174-0.488 0.259-0.165 0.085-0.33 0.167-0.496 0.248-0.167 0.08-0.335 0.159-0.503 0.237-0.169 0.076-0.338 0.151-0.509 0.224h-0.001c-0.17 0.073-0.342 0.145-0.514 0.214-0.174 0.068-0.347 0.136-0.522 0.2h-0.001c-0.175 0.066-0.349 0.129-0.526 0.189h-0.001c-0.176 0.061-0.355 0.119-0.532 0.176h-0.001c-0.178 0.058-0.358 0.112-0.538 0.164-0.181 0.052-0.362 0.104-0.544 0.151-0.182 0.049-0.366 0.095-0.549 0.138-0.185 0.044-0.369 0.086-0.554 0.126-0.185 0.039-0.372 0.076-0.558 0.111-0.188 0.035-0.375 0.067-0.564 0.099h-0.001c-0.187 0.03-0.378 0.06-0.567 0.084h-0.001c-0.19 0.026-0.38 0.05-0.572 0.072h-0.001c-0.19 0.021-0.382 0.04-0.575 0.057-0.193 0.018-0.386 0.031-0.58 0.042-0.193 0.012-0.388 0.022-0.584 0.029-0.195 0.008-0.39 0.011-0.587 0.014l-24.42 0.28-16.16 10.32c-6.168 3.938-6 3.165-5.973-2.827l0.078-17.75c-0.086-0.51-0.099-1.34-0.094-2.52l0.259-35.98c0.046-10.61 7.338-19.59 17.17-22.13 0.181-0.047 0.363-0.092 0.547-0.134h0.002c0.182-0.044 0.367-0.084 0.551-0.122h0.001c0.185-0.039 0.371-0.074 0.558-0.108s0.375-0.065 0.562-0.094h0.001c0.189-0.029 0.378-0.056 0.567-0.08h0.001c0.19-0.025 0.381-0.047 0.572-0.066 0.19-0.019 0.383-0.037 0.576-0.052s0.386-0.027 0.58-0.037c0.194-0.009 0.389-0.018 0.583-0.022 0.196-0.005 0.392-0.008 0.588-0.008z" transform="matrix(1.408 0 0 1.408 -.0001360 .00007544)"/>
    </g>
    <path d="m33.45 50.71-2.37-2.32c-0.08-3.81-7.92-13.33-10.13-14.93-0.329 0.252-1.293 3.987-3.407 2.399-0.493-0.361-2.696 1.917-2.696 2.421 2.477 6.102 6.212 11.47 8.94 16.52 0.372 0.701-0.603-0.099-1.205-0.361l2.215 3.057 0.841 1.46 0.921 0.486 5.731 9.285-0.276-2.829 1.906 0.772 0.218-2.174 7.238-5.27 1.261-4.162-0.031 2.64 2.956-5.781-1.785 4.27c0.31-0.764 2.921-4.574 3.797-5.561l14.43-16.26c2.367-2.209 6.093-7.12 8.798-9.794 1.792-1.772-4.735 3.266-3.748 1.86 0.448-0.638 5.75-5.43 6.301-5.606-1.266-5.126 1.806-2.104 1.806-5.827v-3.253h1.952l-0.02 1.27 2.04-0.64-0.72-2.58h1.301l0.078-2.045 1.332 1.111 3.795-7.522c-1.4 0.739-7.66-2.621-9.54-0.812-7.88 7.551-35.52 41.52-41.92 50.16z" transform="matrix(1.408 0 0 1.408 -.0001360 .00007544)" fill="#b0dbf6"/>
    <g fill="#3c325f">
      <path d="m268.3 140h-7.571l-1.047 3.292h-5.206l7.511-20.94h5.087l7.51 20.94h-5.237zm3.26-23.49h-0.089c0 0.658-0.12 1.257-0.358 1.825-0.239 0.568-0.539 1.047-0.929 1.466-0.388 0.419-0.866 0.748-1.404 0.987-0.539 0.24-1.139 0.359-1.796 0.359-0.538 0-1.018-0.09-1.437-0.27s-0.808-0.389-1.137-0.628c-0.329-0.24-0.629-0.449-0.928-0.629-0.301-0.179-0.598-0.269-0.929-0.269-0.388 0-0.687 0.12-0.896 0.358-0.211 0.239-0.33 0.539-0.33 0.898h-3.71c0-0.659 0.119-1.257 0.358-1.826 0.24-0.568 0.568-1.047 0.957-1.466 0.391-0.419 0.868-0.748 1.407-0.987 0.538-0.239 1.136-0.358 1.764-0.358 0.57 0 1.049 0.089 1.468 0.27 0.419 0.179 0.809 0.388 1.137 0.628 0.329 0.239 0.658 0.448 0.957 0.628 0.3 0.179 0.599 0.27 0.928 0.27 0.39 0 0.688-0.12 0.898-0.359 0.209-0.239 0.329-0.538 0.329-0.897zm-4.696 19.09-1.438-4.549c-0.12-0.389-0.239-0.777-0.33-1.167-0.088-0.389-0.178-0.718-0.269-1.017-0.089-0.299-0.149-0.539-0.209-0.718l-0.089-0.271h-0.03l-0.062 0.271c-0.058 0.179-0.118 0.419-0.209 0.718-0.09 0.299-0.179 0.628-0.299 1.017-0.12 0.39-0.238 0.778-0.358 1.167l-1.468 4.549z" transform="matrix(1.408 0 0 1.408 -.0001006 -2.282)"/>
      <path d="m106.4 128.9-0.09 0.12c-0.268-0.928-0.718-1.616-1.376-2.064-0.659-0.449-1.317-0.658-2.006-0.658-0.687 0-1.226 0.149-1.615 0.448-0.389 0.301-0.568 0.658-0.568 1.077 0 0.329 0.119 0.599 0.329 0.838 0.209 0.239 0.509 0.479 0.897 0.688 0.389 0.21 0.868 0.449 1.407 0.688 0.539 0.238 1.137 0.509 1.765 0.777 0.689 0.299 1.406 0.628 2.125 1.019 0.717 0.389 1.347 0.838 1.915 1.346 0.568 0.509 1.047 1.106 1.405 1.765 0.36 0.659 0.54 1.437 0.54 2.304 0 0.929-0.18 1.797-0.54 2.574-0.358 0.777-0.867 1.466-1.554 2.034-0.689 0.569-1.496 1.019-2.454 1.347-0.957 0.3-2.005 0.448-3.142 0.448-1.107 0-2.125-0.148-3.022-0.418-0.898-0.3-1.705-0.749-2.394-1.316-0.688-0.569-1.286-1.227-1.796-2.006-0.508-0.777-0.896-1.645-1.196-2.572l4.698-1.258c0.119 0.42 0.299 0.81 0.538 1.197 0.239 0.39 0.509 0.718 0.838 1.019 0.329 0.299 0.718 0.538 1.137 0.718 0.419 0.179 0.897 0.269 1.406 0.269 0.777 0 1.377-0.179 1.796-0.508 0.419-0.33 0.628-0.749 0.628-1.257 0-0.389-0.12-0.719-0.359-0.988-0.24-0.269-0.569-0.538-1.018-0.777-0.448-0.239-0.957-0.479-1.556-0.688-0.598-0.209-1.226-0.449-1.914-0.778-0.658-0.299-1.317-0.688-1.975-1.047-0.659-0.358-1.227-0.777-1.736-1.257-0.508-0.478-0.926-1.047-1.226-1.706-0.3-0.657-0.45-1.436-0.45-2.333 0-0.748 0.18-1.496 0.54-2.214 0.359-0.719 0.867-1.376 1.525-1.945 0.658-0.568 1.437-1.017 2.334-1.346 0.897-0.33 1.915-0.509 3.022-0.509 0.957 0 1.855 0.148 2.693 0.449 0.838 0.299 1.587 0.688 2.274 1.195 0.689 0.51 1.286 1.107 1.766 1.796 0.478 0.688 0.838 1.437 1.077 2.244z" transform="matrix(1.408 0 0 1.408 -.0001006 -2.282)"/>
      <path d="m132.6 122.3v12.12c0 1.467-0.21 2.782-0.629 3.92s-0.987 2.095-1.734 2.872c-0.749 0.778-1.647 1.377-2.723 1.797-1.077 0.388-2.275 0.598-3.591 0.598s-2.513-0.21-3.591-0.598c-1.077-0.42-1.974-1.019-2.722-1.797-0.748-0.777-1.317-1.734-1.736-2.872s-0.628-2.453-0.628-3.92v-12.12h4.936v12.09c0 1.615 0.33 2.782 0.958 3.53 0.629 0.748 1.556 1.107 2.783 1.107s2.154-0.359 2.782-1.107 0.958-1.915 0.958-3.53v-12.09z" transform="matrix(1.408 0 0 1.408 -.0001006 -2.282)"/>
      <path d="m149.9 140h-7.571l-1.047 3.292h-5.206l7.51-20.94h5.087l7.51 20.94h-5.237zm-1.436-4.397-1.437-4.549c-0.12-0.389-0.239-0.777-0.33-1.167-0.088-0.389-0.178-0.718-0.268-1.017s-0.15-0.539-0.209-0.718l-0.09-0.271h-0.03l-0.061 0.271c-0.058 0.179-0.119 0.419-0.209 0.718s-0.179 0.628-0.299 1.017c-0.12 0.39-0.239 0.778-0.358 1.167l-1.467 4.549z" transform="matrix(1.408 0 0 1.408 -.0001006 -2.282)"/>
      <path d="m167.3 132.8c0-1.646 0.239-3.142 0.748-4.487 0.509-1.347 1.197-2.483 2.064-3.441 0.869-0.957 1.915-1.705 3.142-2.214s2.544-0.778 3.949-0.778c1.438 0 2.753 0.27 3.951 0.778 1.197 0.509 2.244 1.227 3.142 2.184 0.898 0.958 1.585 2.096 2.094 3.441 0.509 1.347 0.748 2.843 0.748 4.489 0 1.645-0.239 3.141-0.748 4.486-0.509 1.348-1.196 2.484-2.094 3.442-0.898 0.957-1.945 1.675-3.142 2.184-1.198 0.479-2.513 0.748-3.951 0.748-1.405 0-2.722-0.27-3.949-0.748-1.227-0.509-2.273-1.257-3.142-2.215-0.867-0.957-1.555-2.094-2.064-3.439-0.509-1.348-0.748-2.844-0.748-4.489zm6.373 4.43c0.838 1.076 2.006 1.614 3.502 1.614 1.495 0 2.662-0.538 3.53-1.614 0.867-1.078 1.286-2.574 1.286-4.489 0-1.944-0.419-3.441-1.286-4.488-0.868-1.047-2.035-1.586-3.53-1.586-1.496 0-2.664 0.539-3.502 1.586s-1.257 2.544-1.257 4.488c0 1.915 0.419 3.411 1.257 4.489" transform="matrix(1.408 0 0 1.408 -.0001006 -2.282)"/>
      <path d="m199.3 122.3-0.029 0.029c1.197 0 2.274 0.15 3.231 0.479 0.958 0.329 1.796 0.808 2.484 1.406s1.197 1.347 1.555 2.244c0.36 0.897 0.539 1.885 0.539 2.991 0 1.108-0.179 2.097-0.539 2.993-0.358 0.897-0.867 1.646-1.555 2.273-0.688 0.629-1.496 1.107-2.453 1.437-0.958 0.329-2.036 0.479-3.233 0.479h-2.572v6.583h-4.907v-20.92h7.479zm-0.118 9.665v0.029c0.897 0 1.585-0.21 2.095-0.658 0.509-0.448 0.748-1.077 0.748-1.886 0-0.807-0.239-1.436-0.748-1.884-0.51-0.449-1.198-0.688-2.095-0.688h-2.453v5.087z" transform="matrix(1.408 0 0 1.408 -.0001006 -2.282)"/>
      <rect transform="matrix(1.408 0 0 1.408 -.0001006 -2.282)" height="20.94" width="4.907" y="122.3" x="211.6"/>
      <path d="m239.8 122.3-0.061 21h-4.487l-4.13-6.313c-0.388-0.598-0.867-1.256-1.345-1.944-0.479-0.688-0.898-1.347-1.288-1.945-0.388-0.599-0.717-1.077-0.986-1.466l-0.391-0.599h-0.058l0.03 0.539c0.028 0.358 0.028 0.867 0.059 1.557 0.03 0.688 0.06 1.495 0.091 2.423 0.029 0.928 0.029 1.944 0.029 3.082v4.607h-4.877v-20.92h4.488l4.368 6.613c0.299 0.448 0.659 0.987 1.078 1.615 0.418 0.628 0.837 1.227 1.226 1.795 0.39 0.568 0.689 1.048 0.987 1.467l0.419 0.598h0.031v-2.184c0-0.658 0-1.436-0.031-2.334-0.03-0.898-0.03-1.825-0.03-2.813v-4.786h4.878z" transform="matrix(1.408 0 0 1.408 -.0001006 -2.282)"/>
      <rect transform="matrix(1.408 0 0 1.408 -.0001006 -2.282)" height="20.94" width="4.907" y="122.3" x="245.7"/>
      <path d="m277.1 132.8c0-1.646 0.239-3.142 0.748-4.487 0.509-1.347 1.197-2.483 2.063-3.441 0.869-0.957 1.915-1.705 3.143-2.214 1.227-0.509 2.544-0.778 3.948-0.778 1.438 0 2.754 0.27 3.95 0.778 1.198 0.509 2.245 1.227 3.144 2.184 0.896 0.958 1.585 2.096 2.094 3.441 0.509 1.347 0.748 2.843 0.748 4.489 0 1.645-0.239 3.141-0.748 4.486-0.509 1.348-1.197 2.484-2.094 3.442-0.898 0.957-1.945 1.675-3.144 2.184-1.196 0.479-2.513 0.748-3.95 0.748-1.404 0-2.722-0.27-3.948-0.748-1.228-0.509-2.273-1.257-3.143-2.215-0.866-0.957-1.555-2.094-2.063-3.439-0.509-1.348-0.748-2.844-0.748-4.489zm6.373 4.43c0.838 1.076 2.005 1.614 3.501 1.614s2.663-0.538 3.531-1.614c0.865-1.078 1.284-2.574 1.284-4.489 0-1.944-0.419-3.441-1.284-4.488-0.868-1.047-2.035-1.586-3.531-1.586s-2.663 0.539-3.501 1.586-1.257 2.544-1.257 4.488c0 1.915 0.419 3.411 1.257 4.489" transform="matrix(1.408 0 0 1.408 -.0001006 -2.282)"/>
      <path d="m328.2 122.3-7.33 20.94h-5.596l-7.24-20.94h5.326l3.591 11.55c0.389 1.227 0.658 2.245 0.837 3.021 0.18 0.779 0.27 1.167 0.299 1.167h0.03c0.029 0 0.12-0.388 0.3-1.167 0.179-0.776 0.449-1.795 0.838-3.021l3.59-11.55z" transform="matrix(1.408 0 0 1.408 -.0001006 -2.282)"/>
      <path d="m343.7 140h-7.571l-1.047 3.292h-5.207l7.512-20.94h5.087l7.51 20.94h-5.237zm-1.436-4.397-1.438-4.549c-0.12-0.389-0.239-0.777-0.33-1.167-0.089-0.389-0.178-0.718-0.269-1.017-0.089-0.299-0.149-0.539-0.209-0.718l-0.089-0.271h-0.03l-0.062 0.271c-0.059 0.179-0.118 0.419-0.209 0.718-0.09 0.299-0.179 0.628-0.299 1.017-0.12 0.39-0.238 0.778-0.358 1.167l-1.468 4.549z" transform="matrix(1.408 0 0 1.408 -.0001006 -2.282)"/>
      <polygon transform="matrix(1.408 0 0 1.408 -.0001006 -2.282)" points="367.7 143.3 353.8 143.3 353.8 122.3 358.7 122.3 358.7 138.6 367.7 138.6"/>
      <polygon transform="matrix(1.408 0 0 1.408 -.0001006 -2.282)" points="376.9 134.8 376.9 138.6 386.3 138.6 386.3 143.3 372 143.3 372 122.3 386.1 122.3 386.1 127 376.9 127 376.9 130.5 384 130.5 384 134.8"/>
      <path d="m420.1 122.3-0.062 21h-4.787v-5.535c0-2.303 0.062-4.069 0.15-5.296 0.09-1.228 0.12-1.855 0.09-1.855h-0.03l-0.239 0.419c-0.148 0.27-0.328 0.599-0.508 0.957-0.181 0.359-0.359 0.719-0.539 1.077-0.18 0.36-0.3 0.629-0.389 0.778l-2.273 4.249h-2.483l-2.276-4.249c-0.058-0.149-0.178-0.418-0.357-0.778-0.18-0.358-0.359-0.718-0.538-1.077-0.18-0.358-0.36-0.688-0.509-0.957l-0.24-0.419h-0.06c-0.029 0 0 0.6 0.09 1.825 0.09 1.227 0.148 2.992 0.148 5.296v5.536h-4.756v-20.92h4.607l3.591 6.343c0.658 1.167 1.077 2.005 1.257 2.483 0.178 0.479 0.269 0.718 0.299 0.718h0.029l0.06-0.179c0.031-0.12 0.121-0.299 0.24-0.568 0.12-0.27 0.27-0.599 0.479-1.018s0.479-0.928 0.808-1.496l3.59-6.343z" transform="matrix(1.408 0 0 1.408 -.0001006 -2.282)"/>
      <path d="m443 122.3v12.12c0 1.467-0.21 2.782-0.629 3.92s-0.987 2.095-1.734 2.872c-0.749 0.778-1.647 1.377-2.723 1.797-1.077 0.388-2.275 0.598-3.592 0.598-1.315 0-2.514-0.21-3.591-0.598-1.077-0.42-1.974-1.019-2.722-1.797-0.748-0.777-1.317-1.734-1.736-2.872s-0.628-2.453-0.628-3.92v-12.12h4.937v12.09c0 1.615 0.33 2.782 0.958 3.53 0.629 0.748 1.556 1.107 2.782 1.107 1.228 0 2.154-0.359 2.782-1.107s0.958-1.915 0.958-3.53v-12.09z" transform="matrix(1.408 0 0 1.408 -.0001006 -2.282)"/>
      <rect transform="matrix(1.408 0 0 1.408 -.0001006 -2.282)" height="20.94" width="4.906" y="122.3" x="448.6"/>
      <polygon transform="matrix(1.408 0 0 1.408 -.0001006 -2.282)" points="468.2 127 468.2 143.3 463.3 143.3 463.3 127 457.5 127 457.5 122.3 474 122.3 474 127"/>
      <path d="m476.8 132.8c0-1.646 0.239-3.142 0.747-4.487 0.51-1.347 1.197-2.483 2.063-3.441 0.869-0.957 1.916-1.705 3.144-2.214 1.227-0.509 2.543-0.778 3.948-0.778 1.438 0 2.754 0.27 3.949 0.778 1.198 0.509 2.245 1.227 3.144 2.184 0.897 0.958 1.586 2.096 2.094 3.441 0.509 1.347 0.749 2.843 0.749 4.489 0 1.645-0.24 3.141-0.749 4.486-0.508 1.348-1.196 2.484-2.094 3.442-0.898 0.957-1.945 1.675-3.144 2.184-1.195 0.479-2.512 0.748-3.949 0.748-1.405 0-2.722-0.27-3.948-0.748-1.228-0.509-2.274-1.257-3.144-2.215-0.866-0.957-1.554-2.094-2.063-3.439-0.508-1.348-0.747-2.844-0.747-4.489zm6.373 4.43c0.838 1.076 2.005 1.614 3.501 1.614s2.662-0.538 3.529-1.614c0.867-1.078 1.286-2.574 1.286-4.489 0-1.944-0.419-3.441-1.286-4.488s-2.033-1.586-3.529-1.586-2.663 0.539-3.501 1.586-1.257 2.544-1.257 4.488c0 1.915 0.419 3.411 1.257 4.489" transform="matrix(1.408 0 0 1.408 -.0001006 -2.282)"/>
    </g>
  </g>
</svg>
