<svg style="image-rendering:optimizeQuality;text-rendering:geometricPrecision;shape-rendering:geometricPrecision" xmlns="http://www.w3.org/2000/svg" fill-rule="evenodd" height="46.18" width="774.7" version="1.1" clip-rule="evenodd" viewBox="0 0 68.992974 4.11282">
  <defs>
    <style type="text/css"><![CDATA[
    .fil0 {fill:#3C325F;fill-rule:nonzero}
   ]]></style>
    <style type="text/css"><![CDATA[
    .fil0 {fill:#3C325F}
    .fil1 {fill:#B0DCF7}
   ]]></style>
  </defs>
  <g style="image-rendering:optimizeQuality;shape-rendering:geometricPrecision" fill-rule="evenodd" transform="matrix(2.029 0 0 2.029 .000002435 -.000002574)" clip-rule="evenodd" fill="#3c325f">
    <path d="m0.5309 0.4474h0.3288c0.0543 0.0004 0.1037 0.0139 0.1473 0.0395 0.044 0.0261 0.079 0.0611 0.104 0.1047 0.026 0.044 0.039 0.0934 0.04 0.1482-0.001 0.0548-0.014 0.1037-0.04 0.1473-0.025 0.0436-0.06 0.0777-0.104 0.1033-0.0436 0.0256-0.093 0.0386-0.1473 0.0386h-0.3288zm-0.5309 1.577h0.5309v-0.536h0.3315c0.101-0.001 0.1956-0.021 0.2836-0.059 0.089-0.038 0.166-0.091 0.233-0.16 0.068-0.067 0.12-0.146 0.158-0.235 0.038-0.0899 0.058-0.186 0.058-0.2888 0-0.1034-0.02-0.1999-0.058-0.2897-0.039-0.0899-0.092-0.1689-0.16-0.2372-0.068-0.0678-0.147-0.1213-0.236-0.1599-0.09-0.03817-0.1861-0.05793-0.2894-0.0584h-0.8516v2.024zm2.169 0.00269 0.1213-0.265h0.8273l0.125 0.265h0.531l-0.951-2.027h-0.24l-0.943 2.027h0.53zm0.537-1.16 0.204 0.4457h-0.412zm1.867-0.8673h-0.533v1.225c0.0009088 0.1118 0.02154 0.216 0.06197 0.3126 0.0409 0.09613 0.09748 0.181 0.1702 0.2538 0.0723 0.0723 0.1567 0.1294 0.2533 0.1698 0.09613 0.04086 0.2003 0.06153 0.3122 0.06244 0.1105-0.0009088 0.2138-0.02158 0.3099-0.06244 0.09613-0.04042 0.1805-0.09748 0.2538-0.1698 0.07274-0.07277 0.1298-0.1577 0.1711-0.2538 0.0413-0.09657 0.06197-0.2007 0.06287-0.3126v-1.225h-0.535v1.217c-0.0004376 0.04894-0.01259 0.0934-0.03595 0.133-0.0238 0.03995-0.05523 0.07139-0.09475 0.09519-0.03999 0.02336-0.08445 0.03551-0.1334 0.03595-0.049 0-0.093-0.012-0.133-0.036-0.04-0.023-0.071-0.055-0.095-0.095-0.023-0.039-0.035-0.084-0.036-0.133zm1.423 0.5282h0.526v1.496h0.531v-1.496h0.536v-0.528h-1.593v0.5282zm2.207 1.498 0.1213-0.265h0.8273l0.124 0.265h0.532l-0.952-2.026h-0.239l-0.944 2.027zm0.537-1.159 0.204 0.4457h-0.412zm3.08-0.42h0.3288c0.05436 0.0004712 0.1038 0.01393 0.1473 0.03955 0.04355 0.02605 0.07859 0.06109 0.1042 0.1046 0.02561 0.04403 0.03908 0.09344 0.03952 0.1482-0.000437 0.0548-0.0139 0.1037-0.03952 0.1473-0.02561 0.04359-0.06065 0.07772-0.1042 0.1033s-0.09296 0.03861-0.1473 0.03908h-0.33zm-0.53 1.577h0.5309v-0.5363h0.3315c0.1011-0.0009088 0.1958-0.02023 0.2839-0.05884 0.08849-0.0382 0.1662-0.09118 0.2331-0.1594 0.06738-0.06782 0.1199-0.1464 0.1581-0.2358 0.03773-0.0894 0.05749-0.1855 0.05793-0.2884-0.000438-0.1033-0.0202-0.1999-0.0584-0.2897-0.03861-0.08984-0.09162-0.1689-0.1599-0.2372-0.06782-0.06782-0.1469-0.1213-0.2362-0.1599-0.09-0.03877-0.19-0.05852-0.29-0.059h-0.85v2.024zm2.169 0.00269 0.1213-0.265h0.8273l0.124 0.265h0.5309l-0.95-2.027h-0.24l-0.94 2.027h0.5309zm0.5363-1.159 0.2048 0.446h-0.4123zm3.121 1.157-0.4285-0.7339c0.04897-0.04534 0.09118-0.09657 0.1271-0.1536 0.03548-0.05705 0.06331-0.1181 0.08307-0.1842 0.01932-0.066 0.02921-0.1352 0.02965-0.2075-0.000438-0.1033-0.0202-0.1994-0.0584-0.2892-0.03861-0.08984-0.09162-0.1689-0.1599-0.2367-0.06782-0.06826-0.1469-0.1217-0.2362-0.1599-0.1-0.03976-0.19-0.05952-0.3-0.05999h-0.85v2.024h0.5309v-0.5372h0.3288l0.3126 0.5372h0.6117zm-1.253-1.576h0.3288c0.05436 0.0008751 0.1038 0.0139 0.1473 0.03952 0.04355 0.02605 0.07859 0.06065 0.1042 0.1046 0.02561 0.04359 0.03908 0.093 0.03952 0.1473-0.000437 0.0548-0.0139 0.1033-0.03952 0.1469-0.02561 0.04312-0.06065 0.07768-0.1042 0.1029-0.04355 0.02558-0.09296 0.03861-0.1473 0.03908h-0.3288zm1.471 0.08038h0.5255v1.495h0.5309v-1.496h0.5363v-0.528h-1.593v0.5282zm1.957 1.493h0.5309v-2.022h-0.5309zm2.611-1.727c-0.06153-0.06156-0.1294-0.1141-0.2044-0.1577-0.07455-0.04359-0.1545-0.07725-0.2399-0.1006-0.1-0.02454-0.19-0.03669-0.28-0.03669-0.1118 0.0004712-0.2183 0.01754-0.3194 0.05167-0.1006 0.03369-0.1931 0.08176-0.2776 0.1433-0.08398 0.06197-0.1567 0.1347-0.2187 0.2187-0.06153 0.08442-0.1096 0.1765-0.1433 0.2775-0.03413 0.1006-0.05119 0.2071-0.05163 0.3194 0.000437 0.1118 0.0175 0.2183 0.05163 0.3194 0.03369 0.1006 0.08176 0.1931 0.1433 0.2776 0.062 0.08398 0.1348 0.1567 0.2187 0.2187 0.08445 0.06156 0.177 0.1096 0.2776 0.1433 0.101 0.03416 0.2075 0.05123 0.3194 0.05167 0.09387-0.0004376 0.1837-0.01259 0.2695-0.03682 0.08623-0.02427 0.1671-0.05884 0.2425-0.1033 0.07503-0.0445 0.1433-0.09748 0.2048-0.159l-0.3773-0.3719c-0.04221 0.04355-0.09209 0.07678-0.1496 0.0997-0.05749 0.02336-0.1208 0.03504-0.19 0.03504-0.06917-0.0004712-0.1325-0.01212-0.19-0.03548-0.05793-0.02336-0.1078-0.05614-0.1505-0.09882-0.04224-0.04224-0.07503-0.09209-0.09838-0.15-0.02336-0.05749-0.03504-0.1208-0.03548-0.19 0.000437-0.06917 0.01212-0.1325 0.03548-0.19 0.02336-0.05796 0.05614-0.1078 0.09838-0.1505 0.04265-0.04221 0.09253-0.07499 0.1505-0.09835 0.05749-0.02336 0.1208-0.03504 0.19-0.03548 0.06917 0 0.1325 0.01168 0.19 0.03457 0.05749 0.02292 0.1074 0.05523 0.1496 0.09748zm0.4069 1.727h0.5309v-2.022h-0.5309zm1.469-1.574h0.3288c0.05436 0.0004712 0.1038 0.01393 0.1473 0.03955 0.04355 0.02605 0.07859 0.06109 0.1042 0.1046 0.02561 0.04403 0.03908 0.09344 0.03952 0.1482-0.000437 0.0548-0.0139 0.1037-0.03952 0.1473-0.02561 0.04359-0.06065 0.07772-0.1042 0.1033s-0.09296 0.03861-0.1473 0.03908h-0.34zm-0.54 1.576h0.5309v-0.5363h0.3315c0.1011-0.0009088 0.1958-0.02023 0.2839-0.05884 0.08849-0.0382 0.1662-0.09118 0.2331-0.1594 0.06739-0.06782 0.1199-0.1464 0.1581-0.2358 0.03773-0.0894 0.05749-0.1855 0.05793-0.2884-0.000438-0.1033-0.0202-0.1999-0.0584-0.2897-0.03861-0.08984-0.09162-0.1689-0.1599-0.2372-0.06782-0.06782-0.1469-0.1213-0.2362-0.1599-0.09-0.03877-0.19-0.05852-0.29-0.059h-0.85v2.024zm2.169 0.00269 0.1213-0.265h0.8273l0.124 0.265h0.5309l-0.95-2.027h-0.24l-0.95 2.027h0.5309zm0.53-1.16 0.21 0.4457h-0.4123zm1.159-0.3391h0.5255v1.496h0.5309v-1.496h0.5363v-0.528h-1.593v0.5282zm1.957 1.493h0.5309v-2.021h-0.53zm2.36-2.021-0.54 1.152-0.53-1.152h-0.53l0.94 2.027h0.2425l0.94-2.027h-0.52zm0.96 2.027 0.12-0.265h0.8273l0.124 0.265h0.5309l-0.94-2.027h-0.24l-0.95 2.027h0.5309zm0.54-1.16 0.2 0.4457h-0.4123z" class="fil0" fill="#3c325f"/>
  </g>
</svg>
