<?xml version="1.0" encoding="utf-8"?>
<!-- Generator: Adobe Illustrator 21.1.0, SVG Export Plug-In . SVG Version: 6.00 Build 0)  -->
<svg version="1.2" baseProfile="tiny" id="Layer_1" xmlns="http://www.w3.org/2000/svg" xmlns:xlink="http://www.w3.org/1999/xlink"
	 x="0px" y="0px" viewBox="0 0 149.4 42.3" xml:space="preserve">
<rect x="0" y="0" fill="#FFFFFF" width="149.4" height="42.3"/>
<rect x="42.1" y="1.5" fill-rule="evenodd" fill="#50B848" width="105.8" height="39.3"/>
<g>
	<path fill="none" d="M103.7,10.1c-0.6,2-1.1,3.5-1.7,5h3.4C104.8,13.6,104.2,12,103.7,10.1L103.7,10.1z"/>
	<path fill="none" d="M86.1,10.1c-0.6,2-1.1,3.5-1.7,5h3.4C87.2,13.6,86.7,12,86.1,10.1L86.1,10.1z"/>
	<path fill="none" d="M102.9,24.5c-0.5,1.9-1.1,3.4-1.7,4.9h3.3C104,27.9,103.5,26.4,102.9,24.5L102.9,24.5z"/>
	<path fill="none" d="M113.3,24h-2v8.6h1.6c3,0,4.5-1.5,4.5-4.6C117.4,25.5,116.1,24,113.3,24z"/>
	<path fill="none" d="M116.3,9.6h-2v8.7h1.7c3.1,0,4.5-1.5,4.5-4.7C120.5,11.1,119.1,9.6,116.3,9.6z"/>
	<path fill="none" d="M96.3,11.4c0-1.3-0.8-1.8-1.8-1.8h-1.3v4.2H94C95.9,13.8,96.3,12.3,96.3,11.4z"/>
	<path fill="none" d="M53.9,24h-2v8.6h1.6c3,0,4.5-1.5,4.5-4.6C58.1,25.5,56.7,24,53.9,24z"/>
	<path fill="none" d="M64,10.1c-0.6,2-1.1,3.5-1.7,5h3.4C65.1,13.6,64.6,12,64,10.1L64,10.1z"/>
	<path fill="none" d="M128.1,9.4c-2.7,0-3.8,2.3-3.8,4.3c0,2.1,1,4.7,3.8,4.7c2.8,0,3.8-2.6,3.8-4.7C131.8,11.7,130.8,9.4,128.1,9.4
		z"/>
	<path fill="none" d="M126.7,23.8c-2.6,0-3.7,2.3-3.7,4.3c0,2.1,0.9,4.6,3.7,4.6c2.8,0,3.7-2.6,3.7-4.6
		C130.4,26.1,129.3,23.8,126.7,23.8z"/>
	<path fill="#FFFFFF" d="M53.9,22.9h-3.4v10.7h3.2c3.8,0,6-2.1,6-5.7C59.7,25.4,58.2,22.9,53.9,22.9z M53.6,32.6h-1.6V24h2
		c2.8,0,4.1,1.5,4.1,3.9C58.1,31.1,56.6,32.6,53.6,32.6z"/>
	<polygon fill="#FFFFFF" points="64.2,28.5 67.9,28.5 67.9,27.5 64.2,27.5 64.2,24 68,24 68,22.9 62.7,22.9 62.7,33.6 68.6,33.6 
		68.6,32.6 64.2,32.6 	"/>
	<path fill="#FFFFFF" d="M74,22.9h-2.7v10.7h1.5V24h1c1.6,0,2.2,0.9,2.2,2c0,1.6-0.9,2.4-2.3,2.4l-0.5,0v1h0.5
		c2.4,0,3.9-1.6,3.9-3.4C77.7,23.9,76.3,22.9,74,22.9z"/>
	<path fill="#FFFFFF" d="M87,29.7c0,1.5-0.7,3.1-2.7,3.1c-1.9,0-2.7-1.2-2.7-3.4v-6.5h-1.5v6.5c0,2.7,1.2,4.3,4.2,4.3
		c2.6,0,4.1-1.7,4.1-4.1v-6.8H87V29.7z"/>
	<polygon fill="#FFFFFF" points="98.5,22.9 90.2,22.9 90.2,24 93.6,24 93.6,33.6 95.1,33.6 95.1,24 98.5,24 	"/>
	<path fill="#FFFFFF" d="M102.6,22.9l-4.4,10.7h1.4l1.1-3.1h4.1l1.1,3.1h1.7l-4-10.7H102.6z M101.2,29.4c0.6-1.5,1.1-3,1.7-4.9h0
		c0.5,1.9,1.1,3.4,1.6,4.9H101.2z"/>
	<path fill="#FFFFFF" d="M113.2,22.9h-3.4v10.7h3.2c3.8,0,6-2.1,6-5.7C119,25.4,117.5,22.9,113.2,22.9z M112.9,32.6h-1.6V24h2
		c2.8,0,4.1,1.5,4.1,3.9C117.4,31.1,115.9,32.6,112.9,32.6z"/>
	<path fill="#FFFFFF" d="M126.7,22.8c-3.1,0-5.3,2.4-5.3,5.3c0,3.2,2,5.7,5.3,5.7s5.3-2.5,5.3-5.7C132,25.1,129.8,22.8,126.7,22.8z
		 M126.7,32.7c-2.8,0-3.7-2.6-3.7-4.6c0-2,1.1-4.3,3.7-4.3s3.7,2.3,3.7,4.3C130.4,30.2,129.5,32.7,126.7,32.7z"/>
	<path fill="#FFFFFF" d="M137.8,27.6c-1.4-1-2-1.6-2-2.3c0-0.8,0.6-1.5,1.7-1.5c0.6,0,1.3,0.4,1.8,0.8l0.7-0.8
		c-0.6-0.7-1.5-1.1-2.6-1.1c-1.7,0-3.1,1.1-3.1,2.5c0,1.5,1,2.2,1.9,2.9c0.9,0.6,2.5,1.5,2.5,2.9c0,1.2-0.8,1.8-1.9,1.8
		c-1,0-1.7-0.5-2.3-0.9l-0.7,0.9c0.8,0.7,2,1.1,3,1.1c1.7,0,3.3-1.1,3.3-2.8C140.1,29.6,139.3,28.7,137.8,27.6z"/>
	<path fill="#FFFFFF" d="M55.6,19.5c1.4,0,2.7-0.5,3.4-1l-0.6-0.9c-0.6,0.4-1.6,0.8-2.7,0.8c-2.4,0-4.3-1.8-4.3-4.6
		c0-2.5,1.6-4.5,4.3-4.5c1.2,0,2.3,0.5,2.8,0.9l0.6-0.9c-0.7-0.6-1.8-1.1-3.3-1.1c-3.9,0-6,2.9-6,5.6C49.7,16.9,51.7,19.5,55.6,19.5
		z"/>
	<polygon fill="#FFFFFF" points="64,6.2 65.6,7.7 66.5,7.7 64.5,5.3 63.5,5.3 61.6,7.7 62.5,7.7 	"/>
	<path fill="#FFFFFF" d="M63.7,8.5l-4.4,10.9h1.5l1.2-3.2H66l1.1,3.2h1.7l-4-10.9H63.7z M62.3,15.1c0.6-1.5,1.2-3,1.7-5h0
		c0.5,2,1.1,3.5,1.6,5H62.3z"/>
	<path fill="#FFFFFF" d="M81.3,19.3V8.5h-1.4c-1.5,2.9-3.1,5.8-4.6,8.8c-1.4-3.1-2.8-6-4.2-8.8h-1.6v10.9h1.2v-8.8h0
		c0.4,1.4,2.7,6.1,4,8.8h0.6c1.5-2.8,3.9-7.6,4.4-8.8h0v8.8H81.3z"/>
	<path fill="#FFFFFF" d="M86.9,8.5h-1.1l-4.4,10.9h1.5l1.2-3.2h4.1l1.1,3.2H91L86.9,8.5z M84.4,15.1c0.6-1.5,1.2-3,1.7-5h0
		c0.5,2,1.1,3.5,1.6,5H84.4z"/>
	<path fill="#FFFFFF" d="M93.1,14.8h1.6l2.5,4.7l1.5-0.5l-2.7-4.6c1-0.7,1.8-1.6,1.8-3.2c0-1.9-1.4-2.8-3.1-2.8h-3.1v10.9h1.5V14.8z
		 M93.1,9.6h1.3c1,0,1.8,0.5,1.8,1.8c0,0.9-0.4,2.3-2.3,2.3h-0.9V9.6z"/>
	<path fill="#FFFFFF" d="M103.3,8.5l-4.4,10.9h1.5l1.2-3.2h4.1l1.1,3.2h1.7l-4-10.9H103.3z M101.9,15.1c0.6-1.5,1.2-3,1.7-5h0
		c0.5,2,1.1,3.5,1.6,5H101.9z"/>
	<path fill="#FFFFFF" d="M116.3,8.5h-3.5v10.9h3.2c3.8,0,6.1-2.2,6.1-5.8C122.1,11,120.6,8.5,116.3,8.5z M116,18.3h-1.7V9.6h2
		c2.9,0,4.2,1.6,4.2,4C120.5,16.7,119,18.3,116,18.3z"/>
	<path fill="#FFFFFF" d="M128.1,8.3c-3.1,0-5.4,2.4-5.4,5.4c0,3.2,2.1,5.8,5.4,5.8c3.3,0,5.4-2.6,5.4-5.8
		C133.5,10.7,131.2,8.3,128.1,8.3z M128.1,18.4c-2.8,0-3.8-2.6-3.8-4.7c0-2,1.1-4.3,3.8-4.3c2.7,0,3.8,2.3,3.8,4.3
		C131.8,15.8,130.9,18.4,128.1,18.4z"/>
	<path fill="#FFFFFF" d="M136.7,18.4c-1,0-1.7-0.5-2.4-0.9l-0.7,0.9c0.8,0.8,2,1.1,3.1,1.1c1.7,0,3.4-1.1,3.4-2.8
		c0-1.4-0.9-2.4-2.4-3.5c-1.4-1-2.1-1.6-2.1-2.4c0-0.8,0.6-1.5,1.7-1.5c0.7,0,1.3,0.4,1.9,0.8l0.7-0.8c-0.6-0.7-1.6-1.1-2.7-1.1
		c-1.7,0-3.1,1.1-3.1,2.6c0,1.5,1,2.2,1.9,2.9c0.9,0.7,2.5,1.5,2.5,2.9C138.6,17.9,137.8,18.4,136.7,18.4z"/>
</g>
<polygon fill-rule="evenodd" fill="#FFFFFF" points="98.4,19 98.4,18.7 98.6,19 "/>
<polygon fill-rule="evenodd" fill="#FFFFFF" points="98.4,33.3 98.3,33.5 98.4,33.5 "/>
<polygon fill-rule="evenodd" fill="#50B848" points="40.7,32.8 40.7,40.8 1.5,40.8 1.5,33.4 "/>
<linearGradient id="SVGID_1_" gradientUnits="userSpaceOnUse" x1="21.0815" y1="31.2968" x2="21.0815" y2="1.6084">
	<stop  offset="5.076140e-03" style="stop-color:#00AEEF"/>
	<stop  offset="1" style="stop-color:#2E3192"/>
</linearGradient>
<rect x="1.5" y="1.5" fill-rule="evenodd" fill="url(#SVGID_1_)" width="39.2" height="29.6"/>
<path fill-rule="evenodd" fill="#FFFFFF" d="M40.7,23.4v9.4L1.5,33.4v-2.9l0,0l0,0H4l0.2-12.8L1.5,18l0,0l0,0l0,0l0,0l0,0l0,0l0,0
	l0,0l0,0l0,0l0,0l0,0l0,0l0,0l0,0l0,0l0,0l0,0l0,0l0,0l0,0l0,0l0,0l0,0l0,0l0,0l0,0l0,0l0,0l0,0l0,0l0,0v-0.9l0,0l0,0l0,0l0,0l0,0
	l0,0l0,0l0,0l0,0l0,0l0,0l0,0l0,0l0,0l0,0l0,0l2.6,0l0-0.5H1.5l0,0l0,0l0,0l0,0v-0.4l0,0l0,0l0,0l0,0l2.7,0L3.8,4.5h3.7l0.3,7.7
	l-0.2,5.4l0,0v0.4v0.4v0.3l0,6.8l0.3-2.7l0.6,7.8h2.6l1.5,0.1v-0.2l0.7-0.1l0-0.2h0.4l0.1,0.2l0.4,0.3l14,0.4c-1-0.1-3.1-0.2-4.9-1
	c-7-3.2-7.9-4.6-10.6-6.6l9.9,0.1l2-0.3l4.1,0.1L40.7,23.4z"/>
</svg>
